{
	"asset":{
		"generator":"Khronos glTF Blender I/O v4.0.44",
		"version":"2.0"
	},
	"scene":0,
	"scenes":[
		{
			"name":"Scene",
			"nodes":[
				0
			]
		}
	],
	"nodes":[
		{
			"mesh":0,
			"name":"Angel neck November",
			"scale":[
				0.004999999888241291,
				0.004999999888241291,
				0.004999999888241291
			]
		}
	],
	"materials":[
		{
			"doubleSided":true,
			"name":"Material.002",
			"pbrMetallicRoughness":{
				"baseColorFactor":[
					0.800000011920929,
					0.800000011920929,
					0.800000011920929,
					0.5394737124443054
				],
				"roughnessFactor":0.09210526943206787
			}
		}
	],
	"meshes":[
		{
			"name":"Angel neck November",
			"primitives":[
				{
					"attributes":{
						"POSITION":0,
						"NORMAL":1
					},
					"indices":2,
					"material":0
				}
			]
		}
	],
	"accessors":[
		{
			"bufferView":0,
			"componentType":5126,
			"count":29571,
			"max":[
				653.9935302734375,
				74.53954315185547,
				-23.059253692626953
			],
			"min":[
				0.1854151487350464,
				10.170694351196289,
				-44.45875549316406
			],
			"type":"VEC3"
		},
		{
			"bufferView":1,
			"componentType":5126,
			"count":29571,
			"type":"VEC3"
		},
		{
			"bufferView":2,
			"componentType":5123,
			"count":40008,
			"type":"SCALAR"
		}
	],
	"bufferViews":[
		{
			"buffer":0,
			"byteLength":354852,
			"byteOffset":0,
			"target":34962
		},
		{
			"buffer":0,
			"byteLength":354852,
			"byteOffset":354852,
			"target":34962
		},
		{
			"buffer":0,
			"byteLength":80016,
			"byteOffset":709704,
			"target":34963
		}
	],
	"buffers":[
		{
			"byteLength":789720,
			"uri":"scene.bin"
		}
	]
}
